<?xml version="1.0" standalone="no"?>
<!DOCTYPE svg PUBLIC "-//W3C//DTD SVG 20010904//EN"
 "http://www.w3.org/TR/2001/REC-SVG-20010904/DTD/svg10.dtd">
<svg version="1.0" xmlns="http://www.w3.org/2000/svg"
 width="512.000000pt" height="512.000000pt" viewBox="0 0 512.000000 512.000000"
 preserveAspectRatio="xMidYMid meet">
<metadata>
Created by potrace 1.14, written by Peter Selinger 2001-2017
</metadata>
<g transform="translate(0.000000,512.000000) scale(0.100000,-0.100000)"
fill="#000000" stroke="none">
<path d="M3984 4722 c-66 -70 -151 -160 -188 -199 l-68 -73 13 -49 c19 -77 14
-80 -144 -79 -305 1 -587 -98 -855 -300 -71 -53 -232 -219 -1052 -1082 -206
-217 -418 -440 -471 -495 -100 -105 -642 -675 -764 -805 -59 -63 -74 -86 -88
-135 -65 -233 -1 -496 178 -737 87 -116 257 -275 384 -359 256 -170 510 -203
721 -94 46 24 230 214 1420 1470 349 369 679 717 734 775 133 140 201 235 275
379 119 232 171 439 177 700 4 201 8 209 84 180 l48 -18 196 204 195 205 -18
53 c-86 249 -322 476 -590 568 -30 11 -57 19 -60 19 -3 0 -60 -57 -127 -128z
m326 -130 c91 -58 276 -259 257 -278 -8 -8 -88 35 -135 73 -55 45 -134 128
-183 194 -61 82 -54 84 61 11z m-160 -50 c24 -37 87 -110 140 -163 79 -79 109
-102 177 -135 45 -21 82 -41 82 -44 1 -3 -45 -54 -101 -114 l-103 -108 -77 39
c-146 77 -254 182 -333 326 l-38 69 99 99 c54 54 101 99 104 99 3 0 25 -31 50
-68z m-241 -353 c41 -61 168 -180 228 -216 49 -28 50 -22 -14 -93 -22 -25 -23
-35 -26 -220 -5 -265 -40 -417 -148 -634 -74 -147 -129 -223 -283 -387 -115
-123 -143 -148 -160 -143 -104 31 -318 134 -421 202 -280 186 -490 460 -580
755 l-26 88 59 67 c89 99 270 273 327 314 142 100 298 173 460 215 89 24 120
27 288 28 l187 1 31 37 c17 20 34 37 37 37 4 0 22 -23 41 -51z m-1494 -791
c26 -80 117 -264 170 -343 183 -273 439 -478 762 -610 65 -26 90 -41 85 -50
-4 -7 -90 -100 -192 -206 -102 -107 -266 -279 -365 -382 -98 -103 -186 -192
-196 -198 -26 -14 -136 -11 -197 5 -152 41 -343 169 -535 360 -228 225 -334
419 -326 595 l4 80 75 78 c101 105 417 437 565 595 66 70 123 127 127 127 3 1
14 -23 23 -51z m-890 -952 c18 -84 78 -214 147 -313 71 -105 309 -343 433
-434 153 -114 336 -199 425 -199 16 0 31 -4 35 -9 5 -9 -642 -698 -885 -942
-90 -90 -113 -108 -159 -122 -67 -21 -187 -22 -266 -2 -145 37 -319 151 -472
308 -145 150 -231 287 -268 432 -17 67 -20 232 -5 285 12 40 -9 18 476 526
204 214 404 424 444 467 40 42 75 76 77 73 2 -2 11 -34 18 -70z"/>
<path d="M3381 4055 c-187 -42 -354 -130 -513 -268 -97 -85 -141 -141 -141
-178 0 -41 29 -69 71 -69 30 0 45 10 106 72 144 145 313 246 481 288 80 20
106 22 227 17 l137 -7 20 27 c12 14 21 32 21 39 0 27 -23 62 -49 74 -40 20
-282 23 -360 5z"/>
<path d="M1031 1888 c-174 -178 -343 -352 -376 -387 l-60 -63 1 -67 c4 -133
60 -293 155 -432 52 -78 211 -237 245 -245 40 -10 74 4 88 38 19 44 11 63 -56
121 -138 120 -242 288 -273 441 l-16 80 64 65 c35 36 180 185 324 331 317 322
326 333 326 371 0 41 -29 69 -70 69 -32 0 -58 -24 -352 -322z"/>
</g>
</svg>
